<?xml version="1.0" ?><!DOCTYPE svg  PUBLIC '-//W3C//DTD SVG 1.1//EN'  'http://www.w3.org/Graphics/SVG/1.1/DTD/svg11.dtd'><svg enable-background="new 0 0 800 800" height="800px" id="Layer_1" version="1.1" viewBox="0 0 800 800" width="800px" xml:space="preserve" xmlns="http://www.w3.org/2000/svg" xmlns:cc="http://creativecommons.org/ns#" xmlns:dc="http://purl.org/dc/elements/1.1/" xmlns:inkscape="http://www.inkscape.org/namespaces/inkscape" xmlns:rdf="http://www.w3.org/1999/02/22-rdf-syntax-ns#" xmlns:sodipodi="http://sodipodi.sourceforge.net/DTD/sodipodi-0.dtd" xmlns:svg="http://www.w3.org/2000/svg" xmlns:xlink="http://www.w3.org/1999/xlink"><g><linearGradient gradientUnits="userSpaceOnUse" id="SVGID_1_" x1="758.8115" x2="51.9215" y1="758.8115" y2="51.9215"><stop offset="0" style="stop-color:#DC1A41"/><stop offset="0.1009" style="stop-color:#DC2F41"/><stop offset="0.218" style="stop-color:#DC4141"/><stop offset="0.3452" style="stop-color:#DC4B41"/><stop offset="0.5" style="stop-color:#DC4E41"/><stop offset="0.7564" style="stop-color:#DC4C41"/><stop offset="0.8488" style="stop-color:#DC4541"/><stop offset="0.9146" style="stop-color:#DC3A41"/><stop offset="0.9675" style="stop-color:#DC2941"/><stop offset="1" style="stop-color:#DC1A41"/></linearGradient><path d="M766.899,263.598c0-126.776-103.727-230.503-230.503-230.503H263.603   c-126.776,0-230.502,103.727-230.502,230.503v272.805c0,126.776,103.727,230.503,230.502,230.503h272.793   c126.776,0,230.503-103.727,230.503-230.503V263.598z" fill="url(#SVGID_1_)"/><g opacity="0.15"><path d="M105.068,425.064c-3.684-96.681,81.016-186.016,177.782-187.159c49.313-4.193,97.281,14.957,134.642,46.184    c-15.319,16.819-30.91,33.485-47.537,49.037c-32.885-19.943-72.426-35.183-110.852-21.646    c-61.939,17.611-99.459,90.756-76.512,151.331c18.958,63.326,95.94,98.045,156.294,71.453    c31.233-11.16,51.81-39.977,60.875-70.966c-35.822-0.713-71.639-0.277-107.422-1.268c-0.107-21.29-0.192-42.506-0.107-63.796    c59.715-0.119,119.521-0.277,179.322,0.232c3.644,52.2-4.035,108.044-37.99,149.961c-46.428,59.801-132.271,77.344-202.122,53.864    C157.353,577.952,103.444,503.319,105.068,425.064L105.068,425.064z"/><path d="M587.912,344.489h53.275c0.073,17.849,0.231,35.738,0.351,53.547c17.814,0.153,35.698,0.272,53.507,0.351v53.354    c-17.809,0.091-35.692,0.159-53.507,0.272c-0.198,17.894-0.277,35.715-0.351,53.592c-17.815-0.079-35.664,0-53.354,0    c-0.198-17.877-0.198-35.698-0.356-53.508c-17.81-0.197-35.738-0.266-53.547-0.356v-53.354    c17.809-0.113,35.618-0.198,53.547-0.351C587.556,380.227,587.714,362.338,587.912,344.489L587.912,344.489z"/></g><g><path d="M105.068,400.221c-3.684-96.681,81.016-186.005,177.782-187.159    c49.313-4.193,97.281,14.968,134.642,46.195c-15.319,16.819-30.91,33.474-47.537,49.037    c-32.885-19.948-72.426-35.188-110.852-21.652c-61.939,17.611-99.459,90.75-76.512,151.337    c18.958,63.314,95.94,98.039,156.294,71.441c31.233-11.16,51.81-39.971,60.875-70.96c-35.822-0.714-71.639-0.277-107.422-1.268    c-0.107-21.29-0.192-42.506-0.107-63.796c59.715-0.125,119.521-0.277,179.322,0.237c3.644,52.2-4.035,108.045-37.99,149.956    c-46.428,59.801-132.271,77.35-202.122,53.864C157.353,553.114,103.444,478.481,105.068,400.221L105.068,400.221z" fill="#FFFFFF"/><path d="M587.912,319.646h53.275c0.073,17.849,0.231,35.737,0.351,53.546c17.814,0.165,35.698,0.283,53.507,0.362    v53.349c-17.809,0.091-35.692,0.159-53.507,0.277c-0.198,17.889-0.277,35.71-0.351,53.587c-17.815-0.074-35.664,0-53.354,0    c-0.198-17.877-0.198-35.698-0.356-53.508c-17.81-0.197-35.738-0.266-53.547-0.356v-53.349    c17.809-0.125,35.618-0.198,53.547-0.362C587.556,355.383,587.714,337.495,587.912,319.646L587.912,319.646z" fill="#FFFFFF"/></g></g></svg>